<?xml version="1.0" encoding="UTF-8"?>
<svg width="202px" height="64px" viewBox="0 0 202 64" version="1.1" xmlns="http://www.w3.org/2000/svg" xmlns:xlink="http://www.w3.org/1999/xlink">
    <!-- Generator: Sketch 52.5 (67469) - http://www.bohemiancoding.com/sketch -->
    <title>Group Copy</title>
    <desc>Created with Sketch.</desc>
    <defs>
        <linearGradient x1="0.963433656%" y1="10.8445515%" x2="100%" y2="100%" id="linearGradient-1">
            <stop stop-color="#3DBDB6" offset="0%"></stop>
            <stop stop-color="#0089CE" offset="100%"></stop>
        </linearGradient>
        <path d="M68.8156919,11 C72.777279,11 76,14.3716437 76,18.3206651 L76,50.8384798 C76,54.7875012 72.777279,58 68.8156919,58 L33,58 L32.5015427,46.0362827 C33.8298414,44.5409572 45.3862262,42.6309002 45.2765457,40.6021211 L39.0753703,11 L68.8156919,11 Z M62.832,49.432 C67.692,49.432 70.572,47.92 73.164,45.148 L69.636,41.368 C67.656,43.168 65.892,44.32 63.012,44.32 C58.692,44.32 55.704,40.72 55.704,36.4 C55.704,32.008 58.764,28.48 63.012,28.48 C65.892,28.48 67.548,29.524 69.492,31.288 L72.804,27.472 C70.464,25.168 67.8,23.368 63.048,23.368 C55.308,23.368 49.908,29.236 49.908,36.4 C49.908,43.708 55.416,49.432 62.832,49.432 Z" id="path-2"></path>
        <filter x="-16.1%" y="-10.6%" width="132.2%" height="129.8%" filterUnits="objectBoundingBox" id="filter-3">
            <feOffset dx="0" dy="2" in="SourceAlpha" result="shadowOffsetOuter1"></feOffset>
            <feGaussianBlur stdDeviation="2" in="shadowOffsetOuter1" result="shadowBlurOuter1"></feGaussianBlur>
            <feColorMatrix values="0 0 0 0 0   0 0 0 0 0   0 0 0 0 0  0 0 0 0.5 0" type="matrix" in="shadowBlurOuter1"></feColorMatrix>
        </filter>
        <path d="M38.7628752,6.35187678 C38.3186716,2.73095735 35.2698918,0 31.6746687,0 L7.14408914,0 C3.20467963,0 0,3.25272038 0,7.25118483 L0,40.7488152 C0,44.7472796 3.20467963,48 7.14408914,48 C21.3798774,48 31.6208499,48 44.6983432,48 C45.3930662,47.1939905 45.9753888,46.6893081 45.9999962,45.6372417 C46.006029,45.3734597 38.7951029,6.61356398 38.7628752,6.35187678 Z" id="path-4"></path>
        <filter x="-12.0%" y="-9.4%" width="137.0%" height="137.5%" filterUnits="objectBoundingBox" id="filter-5">
            <feOffset dx="3" dy="5" in="SourceAlpha" result="shadowOffsetOuter1"></feOffset>
            <feGaussianBlur stdDeviation="2" in="shadowOffsetOuter1" result="shadowBlurOuter1"></feGaussianBlur>
            <feColorMatrix values="0 0 0 0 0   0 0 0 0 0   0 0 0 0 0  0 0 0 0.7 0" type="matrix" in="shadowBlurOuter1"></feColorMatrix>
        </filter>
    </defs>
    <g id="Page-3" stroke="none" stroke-width="1" fill="none" fill-rule="evenodd">
        <g id="Artboard" transform="translate(-666.000000, -720.000000)">
            <g id="Group-Copy" transform="translate(667.000000, 720.000000)">
                <path d="M84.92,49.36 C81.284,49.36 78.296,47.272 78.296,43.384 C78.296,39.172 81.5,37.228 86.072,37.228 C88.016,37.228 89.42,37.552 90.788,38.02 L90.788,37.696 C90.788,35.428 89.384,34.168 86.648,34.168 C84.56,34.168 83.084,34.564 81.32,35.212 L79.952,31.036 C82.076,30.1 84.164,29.488 87.44,29.488 C90.428,29.488 92.588,30.28 93.956,31.648 C95.396,33.088 96.044,35.212 96.044,37.804 L96.044,49 L90.752,49 L90.752,46.912 C89.42,48.388 87.584,49.36 84.92,49.36 Z M86.576,45.58 C89.132,45.58 90.86,44.176 90.86,42.196 L90.86,41.224 C89.924,40.792 88.7,40.504 87.368,40.504 C85.028,40.504 83.588,41.44 83.588,43.24 C83.588,44.716 84.812,45.58 86.576,45.58 Z M98.512,49 L98.512,22.72 L103.984,22.72 L103.984,49 L98.512,49 Z M107.28,49 L107.28,30.388 L110.052,30.388 L110.052,33.52 C111.276,31.684 112.932,29.992 116.064,29.992 C119.088,29.992 121.032,31.612 122.04,33.7 C123.372,31.648 125.352,29.992 128.592,29.992 C132.876,29.992 135.504,32.872 135.504,37.48 L135.504,49 L132.732,49 L132.732,38.128 C132.732,34.528 130.932,32.512 127.908,32.512 C125.1,32.512 122.76,34.6 122.76,38.272 L122.76,49 L120.024,49 L120.024,38.056 C120.024,34.564 118.188,32.512 115.236,32.512 C112.284,32.512 110.052,34.96 110.052,38.38 L110.052,49 L107.28,49 Z M144.56,49.396 C141.068,49.396 137.612,47.416 137.612,43.528 C137.612,39.532 140.852,37.444 145.568,37.444 C147.944,37.444 149.6,37.768 151.256,38.236 L151.256,37.66 C151.256,34.348 149.24,32.62 145.748,32.62 C143.552,32.62 141.824,33.16 140.096,33.952 L139.268,31.684 C141.32,30.748 143.3,30.1 146.036,30.1 C148.664,30.1 150.716,30.82 152.048,32.152 C153.344,33.448 153.992,35.248 153.992,37.624 L153.992,49 L151.256,49 L151.256,46.228 C149.96,47.884 147.836,49.396 144.56,49.396 Z M145.1,47.164 C148.52,47.164 151.292,45.112 151.292,42.16 L151.292,40.432 C149.924,40.036 148.124,39.64 145.856,39.64 C142.4,39.64 140.42,41.152 140.42,43.456 C140.42,45.796 142.58,47.164 145.1,47.164 Z M163.588,49.324 C160.6,49.324 158.332,47.848 158.332,44.068 L158.332,32.836 L155.74,32.836 L155.74,30.388 L158.332,30.388 L158.332,24.772 L161.104,24.772 L161.104,30.388 L167.008,30.388 L167.008,32.836 L161.104,32.836 L161.104,43.708 C161.104,45.976 162.364,46.804 164.236,46.804 C165.172,46.804 165.964,46.624 166.936,46.156 L166.936,48.532 C165.964,49.036 164.92,49.324 163.588,49.324 Z M170.52,40.828 C170.916,44.752 173.796,47.02 177.072,47.02 C179.628,47.02 181.428,45.976 182.94,44.392 L184.668,45.94 C182.796,48.028 180.528,49.432 177,49.432 C171.888,49.432 167.712,45.508 167.712,39.712 C167.712,34.312 171.492,29.992 176.64,29.992 C182.148,29.992 185.316,34.384 185.316,39.856 C185.316,40.108 185.316,40.396 185.28,40.828 L170.52,40.828 Z M170.52,38.596 L182.508,38.596 C182.184,35.212 180.24,32.332 176.568,32.332 C173.364,32.332 170.916,34.996 170.52,38.596 Z M193.832,49.36 C191.168,49.36 188.216,48.316 186.128,46.624 L187.532,44.644 C189.548,46.156 191.78,47.02 193.976,47.02 C196.208,47.02 197.828,45.868 197.828,43.996 C197.828,42.124 195.632,41.404 193.184,40.72 C190.268,39.892 187.028,38.884 187.028,35.392 C187.028,32.188 189.692,30.064 193.364,30.064 C195.632,30.064 198.152,30.856 200.06,32.116 L198.8,34.204 C197.072,33.088 195.092,32.404 193.292,32.404 C191.096,32.404 189.692,33.556 189.692,35.176 C189.692,36.94 191.996,37.624 194.48,38.38 C197.36,39.244 200.456,40.36 200.456,43.78 C200.456,47.308 197.54,49.36 193.832,49.36 Z" id="almates" fill="#464646"></path>
                <g id="language-copy" fill-rule="nonzero">
                    <g id="Combined-Shape">
                        <use fill="black" fill-opacity="1" filter="url(#filter-3)" xlink:href="#path-2"></use>
                        <use fill="url(#linearGradient-1)" xlink:href="#path-2"></use>
                    </g>
                    <g id="Combined-Shape">
                        <use fill="black" fill-opacity="1" filter="url(#filter-5)" xlink:href="#path-4"></use>
                        <use fill="url(#linearGradient-1)" xlink:href="#path-4"></use>
                    </g>
                </g>
            </g>
        </g>
    </g>
</svg>